<?xml version="1.0" encoding="utf-8"?>
<!-- Generator: Adobe Illustrator 19.0.0, SVG Export Plug-In . SVG Version: 6.00 Build 0)  -->
<svg version="1.1" id="Layer_1" xmlns="http://www.w3.org/2000/svg" xmlns:xlink="http://www.w3.org/1999/xlink" x="0px" y="0px"
	 viewBox="0 0 288 288" style="enable-background:new 0 0 288 288;" xml:space="preserve">
<style type="text/css">
	.st0{fill:#3888A3;}
	.st1{fill:#EDEDED;}
</style>
<g>
	<g id="XMLID_2_">
		<circle id="XMLID_3_" class="st0" cx="144" cy="236.9" r="8.2"/>
		<path id="XMLID_5_" class="st0" d="M185.7,42.9h-83.3c-15.6,0-28.2,13-28.2,29.1v118.9c0,16.1,12.6,29.1,28.2,29.1h83.3
			c15.6,0,28.2-13,28.2-29.1V72C213.9,55.9,201.2,42.9,185.7,42.9z"/>
		<path id="XMLID_11_" class="st0" d="M259.4,0H28.6C12.8,0,0,12.8,0,28.6v230.9C0,275.2,12.8,288,28.6,288h230.9
			c15.8,0,28.6-12.8,28.6-28.6V28.6C288,12.8,275.2,0,259.4,0z M230.3,225.2c0,15.8-12.8,28.6-28.6,28.6H86.3
			c-15.8,0-28.6-12.8-28.6-28.6v-168c0-15.8,12.8-28.6,28.6-28.6h115.5c15.8,0,28.6,12.8,28.6,28.6v168H230.3z"/>
	</g>
	<path id="XMLID_9_" class="st1" d="M201.7,28.7H86.3c-15.8,0-28.6,12.8-28.6,28.6v168c0,15.8,12.8,28.6,28.6,28.6h115.5
		c15.8,0,28.6-12.8,28.6-28.6v-168C230.3,41.5,217.5,28.7,201.7,28.7z M144,245.2c-4.6,0-8.2-3.7-8.2-8.2s3.7-8.2,8.2-8.2
		s8.2,3.7,8.2,8.2S148.6,245.2,144,245.2z M213.9,190.9c0,16.1-12.6,29.1-28.2,29.1h-83.3c-15.6,0-28.2-13-28.2-29.1V72
		c0-16.1,12.6-29.1,28.2-29.1h83.3c15.6,0,28.2,13,28.2,29.1V190.9z"/>
</g>
</svg>
